<svg width="888" height="467" xmlns="http://www.w3.org/2000/svg" xmlns:xlink="http://www.w3.org/1999/xlink" overflow="hidden"><g transform="translate(-203 -193)"><text font-family="Berlin Sans FB,Berlin Sans FB_MSFontService,sans-serif" font-weight="400" font-size="171" transform="translate(306.008 464)">Track</text><text fill="#FF0000" font-family="Berlin Sans FB,Berlin Sans FB_MSFontService,sans-serif" font-weight="400" font-size="221" transform="translate(830.542 477)">t!</text><g><g><g><path d="M10.7937 129.525C10.7937 135.461 15.6509 140.318 21.5874 140.318L21.5874 118.731C15.6509 118.731 10.7937 123.588 10.7937 129.525Z" fill="#FF0000" transform="matrix(6.12323e-17 1 -1.00045 6.126e-17 900.143 245.845)"/><path d="M237.462 118.731 237.462 140.318C243.398 140.318 248.255 135.461 248.255 129.525 248.255 123.588 243.398 118.731 237.462 118.731Z" fill="#FF0000" transform="matrix(6.12323e-17 1 -1.00045 6.126e-17 900.143 245.845)"/><path d="M40.4764 89.0482 37.778 89.0482C31.8415 89.0482 26.9843 93.9053 26.9843 99.8419L26.9843 159.207C26.9843 165.144 31.8415 170.001 37.778 170.001L40.4764 170.001C46.413 170.001 51.2702 165.144 51.2702 159.207L51.2702 99.8419C51.2702 93.9053 46.413 89.0482 40.4764 89.0482Z" fill="#FF0000" transform="matrix(6.12323e-17 1 -1.00045 6.126e-17 900.143 245.845)"/><path d="M221.271 89.0482 218.573 89.0482C212.636 89.0482 207.779 93.9053 207.779 99.8419L207.779 159.207C207.779 165.144 212.636 170.001 218.573 170.001L221.271 170.001C227.208 170.001 232.065 165.144 232.065 159.207L232.065 99.8419C232.065 93.9053 227.208 89.0482 221.271 89.0482Z" fill="#FF0000" transform="matrix(6.12323e-17 1 -1.00045 6.126e-17 900.143 245.845)"/><path d="M191.588 64.7623 186.192 64.7623C180.255 64.7623 175.398 69.6195 175.398 75.556L175.398 113.334 83.6513 113.334 83.6513 75.556C83.6513 69.6195 78.7941 64.7623 72.8576 64.7623L67.4607 64.7623C61.5242 64.7623 56.667 69.6195 56.667 75.556L56.667 183.493C56.667 189.43 61.5242 194.287 67.4607 194.287L72.8576 194.287C78.7941 194.287 83.6513 189.43 83.6513 183.493L83.6513 145.715 175.398 145.715 175.398 183.493C175.398 189.43 180.255 194.287 186.192 194.287L191.588 194.287C197.525 194.287 202.382 189.43 202.382 183.493L202.382 75.556C202.382 69.6195 197.525 64.7623 191.588 64.7623Z" fill="#FF0000" transform="matrix(6.12323e-17 1 -1.00045 6.126e-17 900.143 245.845)"/></g></g></g></g></svg>